<svg width="132" height="113" viewBox="0 0 132 113" fill="none" xmlns="http://www.w3.org/2000/svg">
<g opacity="0.26">
<mask id="mask0" mask-type="alpha" maskUnits="userSpaceOnUse" x="0" y="0" width="11" height="11">
<path d="M5.22838 10.1965C8.11594 10.1965 10.4568 7.91391 10.4568 5.09823C10.4568 2.28255 8.11594 0 5.22838 0C2.34082 0 0 2.28255 0 5.09823C0 7.91391 2.34082 10.1965 5.22838 10.1965Z" fill="url(#paint0_linear)"/>
</mask>
<g mask="url(#mask0)">
<path d="M5.22838 10.1965C8.11594 10.1965 10.4568 7.91391 10.4568 5.09823C10.4568 2.28255 8.11594 0 5.22838 0C2.34082 0 0 2.28255 0 5.09823C0 7.91391 2.34082 10.1965 5.22838 10.1965Z" fill="url(#paint1_linear)"/>
</g>
<mask id="mask1" mask-type="alpha" maskUnits="userSpaceOnUse" x="30" y="0" width="11" height="11">
<path d="M35.5095 10.1965C38.397 10.1965 40.7378 7.91391 40.7378 5.09823C40.7378 2.28255 38.397 0 35.5095 0C32.6219 0 30.2811 2.28255 30.2811 5.09823C30.2811 7.91391 32.6219 10.1965 35.5095 10.1965Z" fill="url(#paint2_linear)"/>
</mask>
<g mask="url(#mask1)">
<path d="M35.5095 10.1965C38.397 10.1965 40.7378 7.91391 40.7378 5.09823C40.7378 2.28255 38.397 0 35.5095 0C32.6219 0 30.2811 2.28255 30.2811 5.09823C30.2811 7.91391 32.6219 10.1965 35.5095 10.1965Z" fill="url(#paint3_linear)"/>
</g>
<mask id="mask2" mask-type="alpha" maskUnits="userSpaceOnUse" x="60" y="0" width="12" height="11">
<path d="M65.7905 10.1965C68.6781 10.1965 71.0189 7.91391 71.0189 5.09823C71.0189 2.28255 68.6781 0 65.7905 0C62.903 0 60.5621 2.28255 60.5621 5.09823C60.5621 7.91391 62.903 10.1965 65.7905 10.1965Z" fill="url(#paint4_linear)"/>
</mask>
<g mask="url(#mask2)">
<path d="M65.7905 10.1965C68.6781 10.1965 71.0189 7.91391 71.0189 5.09823C71.0189 2.28255 68.6781 0 65.7905 0C62.903 0 60.5621 2.28255 60.5621 5.09823C60.5621 7.91391 62.903 10.1965 65.7905 10.1965Z" fill="url(#paint5_linear)"/>
</g>
<mask id="mask3" mask-type="alpha" maskUnits="userSpaceOnUse" x="90" y="0" width="12" height="11">
<path d="M96.0716 10.1965C98.9592 10.1965 101.3 7.91391 101.3 5.09823C101.3 2.28255 98.9592 0 96.0716 0C93.184 0 90.8432 2.28255 90.8432 5.09823C90.8432 7.91391 93.184 10.1965 96.0716 10.1965Z" fill="url(#paint6_linear)"/>
</mask>
<g mask="url(#mask3)">
<path d="M96.0716 10.1965C98.9592 10.1965 101.3 7.91391 101.3 5.09823C101.3 2.28255 98.9592 0 96.0716 0C93.184 0 90.8432 2.28255 90.8432 5.09823C90.8432 7.91391 93.184 10.1965 96.0716 10.1965Z" fill="url(#paint7_linear)"/>
</g>
<mask id="mask4" mask-type="alpha" maskUnits="userSpaceOnUse" x="121" y="0" width="11" height="11">
<path d="M126.353 10.1965C129.24 10.1965 131.581 7.91391 131.581 5.09823C131.581 2.28255 129.24 0 126.353 0C123.465 0 121.124 2.28255 121.124 5.09823C121.124 7.91391 123.465 10.1965 126.353 10.1965Z" fill="url(#paint8_linear)"/>
</mask>
<g mask="url(#mask4)">
<path d="M126.353 10.1965C129.24 10.1965 131.581 7.91391 131.581 5.09823C131.581 2.28255 129.24 0 126.353 0C123.465 0 121.124 2.28255 121.124 5.09823C121.124 7.91391 123.465 10.1965 126.353 10.1965Z" fill="url(#paint9_linear)"/>
</g>
<mask id="mask5" mask-type="alpha" maskUnits="userSpaceOnUse" x="0" y="25" width="11" height="11">
<path d="M5.22838 35.7938C8.11594 35.7938 10.4568 33.5113 10.4568 30.6956C10.4568 27.88 8.11594 25.5974 5.22838 25.5974C2.34082 25.5974 0 27.88 0 30.6956C0 33.5113 2.34082 35.7938 5.22838 35.7938Z" fill="url(#paint10_linear)"/>
</mask>
<g mask="url(#mask5)">
<path d="M5.22838 35.7938C8.11594 35.7938 10.4568 33.5113 10.4568 30.6956C10.4568 27.88 8.11594 25.5974 5.22838 25.5974C2.34082 25.5974 0 27.88 0 30.6956C0 33.5113 2.34082 35.7938 5.22838 35.7938Z" fill="url(#paint11_linear)"/>
</g>
<mask id="mask6" mask-type="alpha" maskUnits="userSpaceOnUse" x="30" y="25" width="11" height="11">
<path d="M35.5095 35.7938C38.397 35.7938 40.7378 33.5113 40.7378 30.6956C40.7378 27.88 38.397 25.5974 35.5095 25.5974C32.6219 25.5974 30.2811 27.88 30.2811 30.6956C30.2811 33.5113 32.6219 35.7938 35.5095 35.7938Z" fill="url(#paint12_linear)"/>
</mask>
<g mask="url(#mask6)">
<path d="M35.5095 35.7938C38.397 35.7938 40.7378 33.5113 40.7378 30.6956C40.7378 27.88 38.397 25.5974 35.5095 25.5974C32.6219 25.5974 30.2811 27.88 30.2811 30.6956C30.2811 33.5113 32.6219 35.7938 35.5095 35.7938Z" fill="url(#paint13_linear)"/>
</g>
<mask id="mask7" mask-type="alpha" maskUnits="userSpaceOnUse" x="60" y="25" width="12" height="11">
<path d="M65.7905 35.7938C68.6781 35.7938 71.0189 33.5113 71.0189 30.6956C71.0189 27.88 68.6781 25.5974 65.7905 25.5974C62.903 25.5974 60.5621 27.88 60.5621 30.6956C60.5621 33.5113 62.903 35.7938 65.7905 35.7938Z" fill="url(#paint14_linear)"/>
</mask>
<g mask="url(#mask7)">
<path d="M65.7905 35.7938C68.6781 35.7938 71.0189 33.5113 71.0189 30.6956C71.0189 27.88 68.6781 25.5974 65.7905 25.5974C62.903 25.5974 60.5621 27.88 60.5621 30.6956C60.5621 33.5113 62.903 35.7938 65.7905 35.7938Z" fill="url(#paint15_linear)"/>
</g>
<mask id="mask8" mask-type="alpha" maskUnits="userSpaceOnUse" x="90" y="25" width="12" height="11">
<path d="M96.0716 35.7938C98.9592 35.7938 101.3 33.5113 101.3 30.6956C101.3 27.88 98.9592 25.5974 96.0716 25.5974C93.184 25.5974 90.8432 27.88 90.8432 30.6956C90.8432 33.5113 93.184 35.7938 96.0716 35.7938Z" fill="url(#paint16_linear)"/>
</mask>
<g mask="url(#mask8)">
<path d="M96.0716 35.7938C98.9592 35.7938 101.3 33.5113 101.3 30.6956C101.3 27.88 98.9592 25.5974 96.0716 25.5974C93.184 25.5974 90.8432 27.88 90.8432 30.6956C90.8432 33.5113 93.184 35.7938 96.0716 35.7938Z" fill="url(#paint17_linear)"/>
</g>
<mask id="mask9" mask-type="alpha" maskUnits="userSpaceOnUse" x="121" y="25" width="11" height="11">
<path d="M126.353 35.7938C129.24 35.7938 131.581 33.5113 131.581 30.6956C131.581 27.88 129.24 25.5974 126.353 25.5974C123.465 25.5974 121.124 27.88 121.124 30.6956C121.124 33.5113 123.465 35.7938 126.353 35.7938Z" fill="url(#paint18_linear)"/>
</mask>
<g mask="url(#mask9)">
<path d="M126.353 35.7938C129.24 35.7938 131.581 33.5113 131.581 30.6956C131.581 27.88 129.24 25.5974 126.353 25.5974C123.465 25.5974 121.124 27.88 121.124 30.6956C121.124 33.5113 123.465 35.7938 126.353 35.7938Z" fill="url(#paint19_linear)"/>
</g>
<mask id="mask10" mask-type="alpha" maskUnits="userSpaceOnUse" x="0" y="51" width="11" height="11">
<path d="M5.22838 61.3384C8.11594 61.3384 10.4568 59.0558 10.4568 56.2401C10.4568 53.4244 8.11594 51.1418 5.22838 51.1418C2.34082 51.1418 0 53.4244 0 56.2401C0 59.0558 2.34082 61.3384 5.22838 61.3384Z" fill="url(#paint20_linear)"/>
</mask>
<g mask="url(#mask10)">
<path d="M5.22838 61.3384C8.11594 61.3384 10.4568 59.0558 10.4568 56.2401C10.4568 53.4244 8.11594 51.1418 5.22838 51.1418C2.34082 51.1418 0 53.4244 0 56.2401C0 59.0558 2.34082 61.3384 5.22838 61.3384Z" fill="url(#paint21_linear)"/>
</g>
<mask id="mask11" mask-type="alpha" maskUnits="userSpaceOnUse" x="30" y="51" width="11" height="11">
<path d="M35.5095 61.3384C38.397 61.3384 40.7378 59.0558 40.7378 56.2401C40.7378 53.4244 38.397 51.1418 35.5095 51.1418C32.6219 51.1418 30.2811 53.4244 30.2811 56.2401C30.2811 59.0558 32.6219 61.3384 35.5095 61.3384Z" fill="url(#paint22_linear)"/>
</mask>
<g mask="url(#mask11)">
<path d="M35.5095 61.3384C38.397 61.3384 40.7378 59.0558 40.7378 56.2401C40.7378 53.4244 38.397 51.1418 35.5095 51.1418C32.6219 51.1418 30.2811 53.4244 30.2811 56.2401C30.2811 59.0558 32.6219 61.3384 35.5095 61.3384Z" fill="url(#paint23_linear)"/>
</g>
<mask id="mask12" mask-type="alpha" maskUnits="userSpaceOnUse" x="60" y="51" width="12" height="11">
<path d="M65.7905 61.3384C68.6781 61.3384 71.0189 59.0558 71.0189 56.2401C71.0189 53.4244 68.6781 51.1418 65.7905 51.1418C62.903 51.1418 60.5621 53.4244 60.5621 56.2401C60.5621 59.0558 62.903 61.3384 65.7905 61.3384Z" fill="url(#paint24_linear)"/>
</mask>
<g mask="url(#mask12)">
<path d="M65.7905 61.3384C68.6781 61.3384 71.0189 59.0558 71.0189 56.2401C71.0189 53.4244 68.6781 51.1418 65.7905 51.1418C62.903 51.1418 60.5621 53.4244 60.5621 56.2401C60.5621 59.0558 62.903 61.3384 65.7905 61.3384Z" fill="url(#paint25_linear)"/>
</g>
<mask id="mask13" mask-type="alpha" maskUnits="userSpaceOnUse" x="90" y="51" width="12" height="11">
<path d="M96.0716 61.3384C98.9592 61.3384 101.3 59.0558 101.3 56.2401C101.3 53.4244 98.9592 51.1418 96.0716 51.1418C93.184 51.1418 90.8432 53.4244 90.8432 56.2401C90.8432 59.0558 93.184 61.3384 96.0716 61.3384Z" fill="url(#paint26_linear)"/>
</mask>
<g mask="url(#mask13)">
<path d="M96.0716 61.3384C98.9592 61.3384 101.3 59.0558 101.3 56.2401C101.3 53.4244 98.9592 51.1418 96.0716 51.1418C93.184 51.1418 90.8432 53.4244 90.8432 56.2401C90.8432 59.0558 93.184 61.3384 96.0716 61.3384Z" fill="url(#paint27_linear)"/>
</g>
<mask id="mask14" mask-type="alpha" maskUnits="userSpaceOnUse" x="121" y="51" width="11" height="11">
<path d="M126.353 61.3384C129.24 61.3384 131.581 59.0558 131.581 56.2401C131.581 53.4244 129.24 51.1418 126.353 51.1418C123.465 51.1418 121.124 53.4244 121.124 56.2401C121.124 59.0558 123.465 61.3384 126.353 61.3384Z" fill="url(#paint28_linear)"/>
</mask>
<g mask="url(#mask14)">
<path d="M126.353 61.3384C129.24 61.3384 131.581 59.0558 131.581 56.2401C131.581 53.4244 129.24 51.1418 126.353 51.1418C123.465 51.1418 121.124 53.4244 121.124 56.2401C121.124 59.0558 123.465 61.3384 126.353 61.3384Z" fill="url(#paint29_linear)"/>
</g>
<mask id="mask15" mask-type="alpha" maskUnits="userSpaceOnUse" x="0" y="76" width="11" height="11">
<path d="M5.22838 86.9358C8.11594 86.9358 10.4568 84.6532 10.4568 81.8375C10.4568 79.0218 8.11594 76.7393 5.22838 76.7393C2.34082 76.7393 0 79.0218 0 81.8375C0 84.6532 2.34082 86.9358 5.22838 86.9358Z" fill="url(#paint30_linear)"/>
</mask>
<g mask="url(#mask15)">
<path d="M5.22838 86.9358C8.11594 86.9358 10.4568 84.6532 10.4568 81.8375C10.4568 79.0218 8.11594 76.7393 5.22838 76.7393C2.34082 76.7393 0 79.0218 0 81.8375C0 84.6532 2.34082 86.9358 5.22838 86.9358Z" fill="url(#paint31_linear)"/>
</g>
<mask id="mask16" mask-type="alpha" maskUnits="userSpaceOnUse" x="30" y="76" width="11" height="11">
<path d="M35.5095 86.9358C38.397 86.9358 40.7378 84.6532 40.7378 81.8375C40.7378 79.0218 38.397 76.7393 35.5095 76.7393C32.6219 76.7393 30.2811 79.0218 30.2811 81.8375C30.2811 84.6532 32.6219 86.9358 35.5095 86.9358Z" fill="url(#paint32_linear)"/>
</mask>
<g mask="url(#mask16)">
<path d="M35.5095 86.9358C38.397 86.9358 40.7378 84.6532 40.7378 81.8375C40.7378 79.0218 38.397 76.7393 35.5095 76.7393C32.6219 76.7393 30.2811 79.0218 30.2811 81.8375C30.2811 84.6532 32.6219 86.9358 35.5095 86.9358Z" fill="url(#paint33_linear)"/>
</g>
<mask id="mask17" mask-type="alpha" maskUnits="userSpaceOnUse" x="60" y="76" width="12" height="11">
<path d="M65.7905 86.9358C68.6781 86.9358 71.0189 84.6532 71.0189 81.8375C71.0189 79.0218 68.6781 76.7393 65.7905 76.7393C62.903 76.7393 60.5621 79.0218 60.5621 81.8375C60.5621 84.6532 62.903 86.9358 65.7905 86.9358Z" fill="url(#paint34_linear)"/>
</mask>
<g mask="url(#mask17)">
<path d="M65.7905 86.9358C68.6781 86.9358 71.0189 84.6532 71.0189 81.8375C71.0189 79.0218 68.6781 76.7393 65.7905 76.7393C62.903 76.7393 60.5621 79.0218 60.5621 81.8375C60.5621 84.6532 62.903 86.9358 65.7905 86.9358Z" fill="url(#paint35_linear)"/>
</g>
<mask id="mask18" mask-type="alpha" maskUnits="userSpaceOnUse" x="90" y="76" width="12" height="11">
<path d="M96.0716 86.9358C98.9592 86.9358 101.3 84.6532 101.3 81.8375C101.3 79.0218 98.9592 76.7393 96.0716 76.7393C93.184 76.7393 90.8432 79.0218 90.8432 81.8375C90.8432 84.6532 93.184 86.9358 96.0716 86.9358Z" fill="url(#paint36_linear)"/>
</mask>
<g mask="url(#mask18)">
<path d="M96.0716 86.9358C98.9592 86.9358 101.3 84.6532 101.3 81.8375C101.3 79.0218 98.9592 76.7393 96.0716 76.7393C93.184 76.7393 90.8432 79.0218 90.8432 81.8375C90.8432 84.6532 93.184 86.9358 96.0716 86.9358Z" fill="url(#paint37_linear)"/>
</g>
<mask id="mask19" mask-type="alpha" maskUnits="userSpaceOnUse" x="121" y="76" width="11" height="11">
<path d="M126.353 86.9358C129.24 86.9358 131.581 84.6532 131.581 81.8375C131.581 79.0218 129.24 76.7393 126.353 76.7393C123.465 76.7393 121.124 79.0218 121.124 81.8375C121.124 84.6532 123.465 86.9358 126.353 86.9358Z" fill="url(#paint38_linear)"/>
</mask>
<g mask="url(#mask19)">
<path d="M126.353 86.9358C129.24 86.9358 131.581 84.6532 131.581 81.8375C131.581 79.0218 129.24 76.7393 126.353 76.7393C123.465 76.7393 121.124 79.0218 121.124 81.8375C121.124 84.6532 123.465 86.9358 126.353 86.9358Z" fill="url(#paint39_linear)"/>
</g>
<mask id="mask20" mask-type="alpha" maskUnits="userSpaceOnUse" x="0" y="102" width="11" height="11">
<path d="M5.22838 112.48C8.11594 112.48 10.4568 110.197 10.4568 107.382C10.4568 104.566 8.11594 102.283 5.22838 102.283C2.34082 102.283 0 104.566 0 107.382C0 110.197 2.34082 112.48 5.22838 112.48Z" fill="url(#paint40_linear)"/>
</mask>
<g mask="url(#mask20)">
<path d="M5.22838 112.48C8.11594 112.48 10.4568 110.197 10.4568 107.382C10.4568 104.566 8.11594 102.283 5.22838 102.283C2.34082 102.283 0 104.566 0 107.382C0 110.197 2.34082 112.48 5.22838 112.48Z" fill="url(#paint41_linear)"/>
</g>
<mask id="mask21" mask-type="alpha" maskUnits="userSpaceOnUse" x="30" y="102" width="11" height="11">
<path d="M35.5095 112.48C38.397 112.48 40.7378 110.197 40.7378 107.382C40.7378 104.566 38.397 102.283 35.5095 102.283C32.6219 102.283 30.2811 104.566 30.2811 107.382C30.2811 110.197 32.6219 112.48 35.5095 112.48Z" fill="url(#paint42_linear)"/>
</mask>
<g mask="url(#mask21)">
<path d="M35.5095 112.48C38.397 112.48 40.7378 110.197 40.7378 107.382C40.7378 104.566 38.397 102.283 35.5095 102.283C32.6219 102.283 30.2811 104.566 30.2811 107.382C30.2811 110.197 32.6219 112.48 35.5095 112.48Z" fill="url(#paint43_linear)"/>
</g>
<mask id="mask22" mask-type="alpha" maskUnits="userSpaceOnUse" x="60" y="102" width="12" height="11">
<path d="M65.7905 112.48C68.6781 112.48 71.0189 110.197 71.0189 107.382C71.0189 104.566 68.6781 102.283 65.7905 102.283C62.903 102.283 60.5621 104.566 60.5621 107.382C60.5621 110.197 62.903 112.48 65.7905 112.48Z" fill="url(#paint44_linear)"/>
</mask>
<g mask="url(#mask22)">
<path d="M65.7905 112.48C68.6781 112.48 71.0189 110.197 71.0189 107.382C71.0189 104.566 68.6781 102.283 65.7905 102.283C62.903 102.283 60.5621 104.566 60.5621 107.382C60.5621 110.197 62.903 112.48 65.7905 112.48Z" fill="url(#paint45_linear)"/>
</g>
<mask id="mask23" mask-type="alpha" maskUnits="userSpaceOnUse" x="90" y="102" width="12" height="11">
<path d="M96.0716 112.48C98.9592 112.48 101.3 110.197 101.3 107.382C101.3 104.566 98.9592 102.283 96.0716 102.283C93.184 102.283 90.8432 104.566 90.8432 107.382C90.8432 110.197 93.184 112.48 96.0716 112.48Z" fill="url(#paint46_linear)"/>
</mask>
<g mask="url(#mask23)">
<path d="M96.0716 112.48C98.9592 112.48 101.3 110.197 101.3 107.382C101.3 104.566 98.9592 102.283 96.0716 102.283C93.184 102.283 90.8432 104.566 90.8432 107.382C90.8432 110.197 93.184 112.48 96.0716 112.48Z" fill="url(#paint47_linear)"/>
</g>
<mask id="mask24" mask-type="alpha" maskUnits="userSpaceOnUse" x="121" y="102" width="11" height="11">
<path d="M126.353 112.48C129.24 112.48 131.581 110.197 131.581 107.382C131.581 104.566 129.24 102.283 126.353 102.283C123.465 102.283 121.124 104.566 121.124 107.382C121.124 110.197 123.465 112.48 126.353 112.48Z" fill="url(#paint48_linear)"/>
</mask>
<g mask="url(#mask24)">
<path d="M126.353 112.48C129.24 112.48 131.581 110.197 131.581 107.382C131.581 104.566 129.24 102.283 126.353 102.283C123.465 102.283 121.124 104.566 121.124 107.382C121.124 110.197 123.465 112.48 126.353 112.48Z" fill="url(#paint49_linear)"/>
</g>
</g>
<defs>
<linearGradient id="paint0_linear" x1="54.996" y1="128.26" x2="-13.7088" y2="-50.5957" gradientUnits="userSpaceOnUse">
<stop stop-color="white"/>
<stop offset="1" stop-color="white"/>
</linearGradient>
<linearGradient id="paint1_linear" x1="54.996" y1="128.26" x2="-13.7088" y2="-50.5957" gradientUnits="userSpaceOnUse">
<stop stop-color="white"/>
<stop offset="1" stop-color="white"/>
</linearGradient>
<linearGradient id="paint2_linear" x1="85.2771" y1="128.26" x2="16.5724" y2="-50.5957" gradientUnits="userSpaceOnUse">
<stop stop-color="white"/>
<stop offset="1" stop-color="white"/>
</linearGradient>
<linearGradient id="paint3_linear" x1="85.2771" y1="128.26" x2="16.5724" y2="-50.5957" gradientUnits="userSpaceOnUse">
<stop stop-color="white"/>
<stop offset="1" stop-color="white"/>
</linearGradient>
<linearGradient id="paint4_linear" x1="115.558" y1="128.26" x2="46.8535" y2="-50.5957" gradientUnits="userSpaceOnUse">
<stop stop-color="white"/>
<stop offset="1" stop-color="white"/>
</linearGradient>
<linearGradient id="paint5_linear" x1="115.558" y1="128.26" x2="46.8535" y2="-50.5957" gradientUnits="userSpaceOnUse">
<stop stop-color="white"/>
<stop offset="1" stop-color="white"/>
</linearGradient>
<linearGradient id="paint6_linear" x1="145.839" y1="128.26" x2="77.1346" y2="-50.5957" gradientUnits="userSpaceOnUse">
<stop stop-color="white"/>
<stop offset="1" stop-color="white"/>
</linearGradient>
<linearGradient id="paint7_linear" x1="145.839" y1="128.26" x2="77.1346" y2="-50.5957" gradientUnits="userSpaceOnUse">
<stop stop-color="white"/>
<stop offset="1" stop-color="white"/>
</linearGradient>
<linearGradient id="paint8_linear" x1="176.12" y1="128.26" x2="107.416" y2="-50.5957" gradientUnits="userSpaceOnUse">
<stop stop-color="white"/>
<stop offset="1" stop-color="white"/>
</linearGradient>
<linearGradient id="paint9_linear" x1="176.12" y1="128.26" x2="107.416" y2="-50.5957" gradientUnits="userSpaceOnUse">
<stop stop-color="white"/>
<stop offset="1" stop-color="white"/>
</linearGradient>
<linearGradient id="paint10_linear" x1="54.996" y1="153.857" x2="-13.7076" y2="-24.9982" gradientUnits="userSpaceOnUse">
<stop stop-color="white"/>
<stop offset="1" stop-color="white"/>
</linearGradient>
<linearGradient id="paint11_linear" x1="54.996" y1="153.857" x2="-13.7076" y2="-24.9982" gradientUnits="userSpaceOnUse">
<stop stop-color="white"/>
<stop offset="1" stop-color="white"/>
</linearGradient>
<linearGradient id="paint12_linear" x1="85.2771" y1="153.857" x2="16.5736" y2="-24.9983" gradientUnits="userSpaceOnUse">
<stop stop-color="white"/>
<stop offset="1" stop-color="white"/>
</linearGradient>
<linearGradient id="paint13_linear" x1="85.2771" y1="153.857" x2="16.5736" y2="-24.9983" gradientUnits="userSpaceOnUse">
<stop stop-color="white"/>
<stop offset="1" stop-color="white"/>
</linearGradient>
<linearGradient id="paint14_linear" x1="115.558" y1="153.857" x2="46.8547" y2="-24.9983" gradientUnits="userSpaceOnUse">
<stop stop-color="white"/>
<stop offset="1" stop-color="white"/>
</linearGradient>
<linearGradient id="paint15_linear" x1="115.558" y1="153.857" x2="46.8547" y2="-24.9983" gradientUnits="userSpaceOnUse">
<stop stop-color="white"/>
<stop offset="1" stop-color="white"/>
</linearGradient>
<linearGradient id="paint16_linear" x1="145.839" y1="153.857" x2="77.1357" y2="-24.9983" gradientUnits="userSpaceOnUse">
<stop stop-color="white"/>
<stop offset="1" stop-color="white"/>
</linearGradient>
<linearGradient id="paint17_linear" x1="145.839" y1="153.857" x2="77.1357" y2="-24.9983" gradientUnits="userSpaceOnUse">
<stop stop-color="white"/>
<stop offset="1" stop-color="white"/>
</linearGradient>
<linearGradient id="paint18_linear" x1="176.12" y1="153.857" x2="107.417" y2="-24.9983" gradientUnits="userSpaceOnUse">
<stop stop-color="white"/>
<stop offset="1" stop-color="white"/>
</linearGradient>
<linearGradient id="paint19_linear" x1="176.12" y1="153.857" x2="107.417" y2="-24.9983" gradientUnits="userSpaceOnUse">
<stop stop-color="white"/>
<stop offset="1" stop-color="white"/>
</linearGradient>
<linearGradient id="paint20_linear" x1="54.996" y1="179.402" x2="-13.7088" y2="0.546181" gradientUnits="userSpaceOnUse">
<stop stop-color="white"/>
<stop offset="1" stop-color="white"/>
</linearGradient>
<linearGradient id="paint21_linear" x1="54.996" y1="179.402" x2="-13.7088" y2="0.546181" gradientUnits="userSpaceOnUse">
<stop stop-color="white"/>
<stop offset="1" stop-color="white"/>
</linearGradient>
<linearGradient id="paint22_linear" x1="85.2771" y1="179.402" x2="16.5724" y2="0.546126" gradientUnits="userSpaceOnUse">
<stop stop-color="white"/>
<stop offset="1" stop-color="white"/>
</linearGradient>
<linearGradient id="paint23_linear" x1="85.2771" y1="179.402" x2="16.5724" y2="0.546126" gradientUnits="userSpaceOnUse">
<stop stop-color="white"/>
<stop offset="1" stop-color="white"/>
</linearGradient>
<linearGradient id="paint24_linear" x1="115.558" y1="179.402" x2="46.8535" y2="0.546126" gradientUnits="userSpaceOnUse">
<stop stop-color="white"/>
<stop offset="1" stop-color="white"/>
</linearGradient>
<linearGradient id="paint25_linear" x1="115.558" y1="179.402" x2="46.8535" y2="0.546126" gradientUnits="userSpaceOnUse">
<stop stop-color="white"/>
<stop offset="1" stop-color="white"/>
</linearGradient>
<linearGradient id="paint26_linear" x1="145.839" y1="179.402" x2="77.1346" y2="0.546126" gradientUnits="userSpaceOnUse">
<stop stop-color="white"/>
<stop offset="1" stop-color="white"/>
</linearGradient>
<linearGradient id="paint27_linear" x1="145.839" y1="179.402" x2="77.1346" y2="0.546126" gradientUnits="userSpaceOnUse">
<stop stop-color="white"/>
<stop offset="1" stop-color="white"/>
</linearGradient>
<linearGradient id="paint28_linear" x1="176.12" y1="179.402" x2="107.416" y2="0.546126" gradientUnits="userSpaceOnUse">
<stop stop-color="white"/>
<stop offset="1" stop-color="white"/>
</linearGradient>
<linearGradient id="paint29_linear" x1="176.12" y1="179.402" x2="107.416" y2="0.546126" gradientUnits="userSpaceOnUse">
<stop stop-color="white"/>
<stop offset="1" stop-color="white"/>
</linearGradient>
<linearGradient id="paint30_linear" x1="54.996" y1="205" x2="-13.7088" y2="26.1436" gradientUnits="userSpaceOnUse">
<stop stop-color="white"/>
<stop offset="1" stop-color="white"/>
</linearGradient>
<linearGradient id="paint31_linear" x1="54.996" y1="205" x2="-13.7088" y2="26.1436" gradientUnits="userSpaceOnUse">
<stop stop-color="white"/>
<stop offset="1" stop-color="white"/>
</linearGradient>
<linearGradient id="paint32_linear" x1="85.2771" y1="205" x2="16.5724" y2="26.1435" gradientUnits="userSpaceOnUse">
<stop stop-color="white"/>
<stop offset="1" stop-color="white"/>
</linearGradient>
<linearGradient id="paint33_linear" x1="85.2771" y1="205" x2="16.5724" y2="26.1435" gradientUnits="userSpaceOnUse">
<stop stop-color="white"/>
<stop offset="1" stop-color="white"/>
</linearGradient>
<linearGradient id="paint34_linear" x1="115.558" y1="205" x2="46.8535" y2="26.1435" gradientUnits="userSpaceOnUse">
<stop stop-color="white"/>
<stop offset="1" stop-color="white"/>
</linearGradient>
<linearGradient id="paint35_linear" x1="115.558" y1="205" x2="46.8535" y2="26.1435" gradientUnits="userSpaceOnUse">
<stop stop-color="white"/>
<stop offset="1" stop-color="white"/>
</linearGradient>
<linearGradient id="paint36_linear" x1="145.839" y1="205" x2="77.1346" y2="26.1435" gradientUnits="userSpaceOnUse">
<stop stop-color="white"/>
<stop offset="1" stop-color="white"/>
</linearGradient>
<linearGradient id="paint37_linear" x1="145.839" y1="205" x2="77.1346" y2="26.1435" gradientUnits="userSpaceOnUse">
<stop stop-color="white"/>
<stop offset="1" stop-color="white"/>
</linearGradient>
<linearGradient id="paint38_linear" x1="176.12" y1="205" x2="107.416" y2="26.1435" gradientUnits="userSpaceOnUse">
<stop stop-color="white"/>
<stop offset="1" stop-color="white"/>
</linearGradient>
<linearGradient id="paint39_linear" x1="176.12" y1="205" x2="107.416" y2="26.1435" gradientUnits="userSpaceOnUse">
<stop stop-color="white"/>
<stop offset="1" stop-color="white"/>
</linearGradient>
<linearGradient id="paint40_linear" x1="54.996" y1="230.544" x2="-13.7088" y2="51.6878" gradientUnits="userSpaceOnUse">
<stop stop-color="white"/>
<stop offset="1" stop-color="white"/>
</linearGradient>
<linearGradient id="paint41_linear" x1="54.996" y1="230.544" x2="-13.7088" y2="51.6878" gradientUnits="userSpaceOnUse">
<stop stop-color="white"/>
<stop offset="1" stop-color="white"/>
</linearGradient>
<linearGradient id="paint42_linear" x1="85.2771" y1="230.544" x2="16.5724" y2="51.6877" gradientUnits="userSpaceOnUse">
<stop stop-color="white"/>
<stop offset="1" stop-color="white"/>
</linearGradient>
<linearGradient id="paint43_linear" x1="85.2771" y1="230.544" x2="16.5724" y2="51.6877" gradientUnits="userSpaceOnUse">
<stop stop-color="white"/>
<stop offset="1" stop-color="white"/>
</linearGradient>
<linearGradient id="paint44_linear" x1="115.558" y1="230.544" x2="46.8535" y2="51.6877" gradientUnits="userSpaceOnUse">
<stop stop-color="white"/>
<stop offset="1" stop-color="white"/>
</linearGradient>
<linearGradient id="paint45_linear" x1="115.558" y1="230.544" x2="46.8535" y2="51.6877" gradientUnits="userSpaceOnUse">
<stop stop-color="white"/>
<stop offset="1" stop-color="white"/>
</linearGradient>
<linearGradient id="paint46_linear" x1="145.839" y1="230.544" x2="77.1346" y2="51.6877" gradientUnits="userSpaceOnUse">
<stop stop-color="white"/>
<stop offset="1" stop-color="white"/>
</linearGradient>
<linearGradient id="paint47_linear" x1="145.839" y1="230.544" x2="77.1346" y2="51.6877" gradientUnits="userSpaceOnUse">
<stop stop-color="white"/>
<stop offset="1" stop-color="white"/>
</linearGradient>
<linearGradient id="paint48_linear" x1="176.12" y1="230.544" x2="107.416" y2="51.6877" gradientUnits="userSpaceOnUse">
<stop stop-color="white"/>
<stop offset="1" stop-color="white"/>
</linearGradient>
<linearGradient id="paint49_linear" x1="176.12" y1="230.544" x2="107.416" y2="51.6877" gradientUnits="userSpaceOnUse">
<stop stop-color="white"/>
<stop offset="1" stop-color="white"/>
</linearGradient>
</defs>
</svg>
